<svg xmlns="http://www.w3.org/2000/svg" viewBox="775 399 309 340">
  <style>
    .st20 {
      fill: #531b00
    }
  </style>
  <g>
    <path d="M887.7 726.1c76.3 20.3 123.6 1.7 150.9-26-38.2 22.9-70.6 2.6-72.6-10.9 0 0-3.4-28.2 34.2-54.7 22.2-15.7 54.3-21.2 69.9-10.5-1.8-38.3-7.1-78.5-34.7-116-6.7-9.1-15.2-10.7-24.2-7.8 1.8 28-5.1 68.2-44 92.7-40.1 25.3-96.2 8.2-125.1-10.1-2.4-.1-5-.3-7.9-.7-10.1-1.5-24.7-6.1-31.8-13.9-6.7 5.5-12.2 15.3-8.9 24.6 0 0-27.3 37.5-4.2 75.6 12.9 21.2 41.3 42.5 98.4 57.7" style="fill:#facc15" />
    <path d="M831.1 484.7c.1-.5.2-.9.3-1.4-.1.4-.2.9-.3 1.4m5.1-13.7c.5-1 1.1-2 1.7-3-.6 1-1.1 2-1.7 3m-4.7 11.6c.1-.5.3-.9.4-1.4-.1.5-.2 1-.4 1.4m2.1-6.1c.3-.7.6-1.4.9-2-.3.6-.6 1.3-.9 2m14.9 22.1c6.8 2.8 11.1 11.4 15.4 17.1s19.1 26.5 30.5 29c11.4 2.6 27.9 5.4 27.9 19.6s-20.5 15.4-41.3 14.8c-17.7-.5-25.1 4-38.8 3.6 28.8 18.3 85 35.4 125.1 10.1 38.8-24.5 45.8-64.7 44-92.7-.4-6.5-1.3-12.4-2.4-17.2-5.7-25.6-35.3-45-39.9-54.7s-17.1-30.2-24.5-22.8-13.1 16.5-45.7 21.1c-29.3 4.1-49.6 22-60.8 41.3 1.2-2.1 2.6-4.2 4.1-6.3.4.3.8.8 1.1 1.3 2.6 4.4.5 13.9-4.9 21.1-2.6 3.5-5.5 5.8-8.1 6.8-.4 5.1-.1 9.9.5 14 3.3-1.1 6-2.5 7.5-3.6 3.7-2.5 8-3.4 10.3-2.5m52 .2c4-8.4 13.5-12.3 21.2-8.7s10.7 13.4 6.7 21.9c-4 8.4-13.5 12.3-21.2 8.7s-10.7-13.5-6.7-21.9m-67.7-20.3c.2-.5.4-1 .6-1.4-.2.5-.4.9-.6 1.4m-2.4 10.2c.1-.5.1-1 .2-1.5-.1.5-.2 1-.2 1.5m-.2 2c0-.5.1-1 .2-1.5-.1.5-.2 1-.2 1.5m4.3-16.3c.5-1 1-2 1.5-2.9-.5 1-1 1.9-1.5 2.9m-2.4 6.2c.1-.5.3-.9.5-1.4-.2.4-.3.9-.5 1.4" style="fill:#fde047" />
    <ellipse transform="rotate(115.404 914.453 505.36)" class="st20" cx="914.5" cy="505.4" rx="16.9" ry="15.4" />
    <path class="st20" d="M277.9 127.8c5.8-5 6.8-15.7 2.2-23.8s-13.1-10.6-19-5.6c-5.8 5-6.8 10.7 19 5.6m558.1 380c5.3-7.2 7.5-16.6 4.9-21.1-.3-.5-.7-1-1.1-1.3-1.5 2.1-2.8 4.2-4.1 6.3v.1c-.6 1-1.1 2-1.7 3-.1.2-.2.3-.3.5-.5 1-1 2-1.5 2.9-.3.7-.6 1.4-.9 2-.1.2-.2.4-.2.6-.2.5-.4 1-.6 1.4-.1.2-.1.4-.2.7-.2.5-.3.9-.5 1.4-.1.2-.1.4-.2.6-.1.5-.3.9-.4 1.4-.1.2-.1.4-.1.6-.1.5-.2 1-.3 1.4 0 .2-.1.4-.1.6-.1.5-.2 1-.3 1.4 0 .2-.1.4-.1.5-.1.5-.2 1-.2 1.5 0 .2 0 .3-.1.5-.1.5-.1 1-.2 1.5v.1c2.7-.8 5.6-3.1 8.2-6.6" />
    <path d="M834.2 582.1c2.9.4 5.5.6 7.9.7 13.7.4 21.1-4 38.8-3.6 20.8.6 41.3-.6 41.3-14.8s-16.5-17.1-27.9-19.6c-11.4-2.6-26.2-23.4-30.5-29-4.3-5.7-8.5-14.3-15.4-17.1-2.2-.9-6.5 0-10.3 2.6-1.6 1.1-4.2 2.5-7.5 3.6-4.5 1.5-10.2 2.4-16.4 1.2-10.8-2-17.4-.9-20.5 3.4s0 11.7 7.7 15.9c7.7 4.3 9.4 13.7 9.4 13.7-15.1 12.4-14.9 22.1-8.4 29.1 7.1 7.8 21.7 12.4 31.8 13.9m-18.8-55.6c28.5 2.6 57 32.5 57 32.5-7.4-5.1-21.6 2.6-38.7-2.3-17.1-4.8-10.8-13.7-10.3-16.2.6-2.5-2.6-2.6-6.3-5.2-3.7-2.5-8-9.3-1.7-8.8" style="fill:#f6861f" />
    <path d="M817.1 535.4c3.7 2.6 6.8 2.7 6.3 5.2-.6 2.5-6.8 11.3 10.3 16.2 17.1 4.8 31.3-2.8 38.7 2.3 0 0-28.5-29.9-57-32.5-6.3-.6-2 6.2 1.7 8.8" style="fill:#f15721" />
    <path d="M1000.2 634.5C962.6 661 966 689.1 966 689.1c2 13.5 34.3 33.8 72.6 10.9 9.9-5.9 20.2-14.8 30.5-27.3l1.2-1.5c13.6-24.8 10.6-39.9-.2-47.2-15.6-10.7-47.7-5.2-69.9 10.5" style="fill:#eab308" />
  </g>
</svg>