<svg xmlns="http://www.w3.org/2000/svg" width="1000" height="1000" style="shape-rendering:geometricPrecision;text-rendering:geometricPrecision;image-rendering:optimizeQuality;fill-rule:evenodd;clip-rule:evenodd">
  <path style="opacity:1" fill="#f3f3f3" d="M-.5-.5h142l356 496v1l-2 1q-1.462-2.54-4-4.5A245181 245181 0 0 0-.5 141.5zm419 0h163a439 439 0 0 0-4 23q.03 1.839 1 3 2 .5 0 1-2.851 4.264-3.5 10a317 317 0 0 1-2.5 17.5q.021 2.077 1 3.5.356 1.936-1 3-1.262-.765-1.5 2a308 308 0 0 1-2.5 16q-3.481 10.35-2 21v1q-1.724.436-2 2.5a967 967 0 0 0-5 30.5q.03 1.839 1 3a75 75 0 0 0-3 15q-2.926 7.988-4 18.5.042 1.605 1 2.5 2 .5 0 1-3.006 4.74-3.5 11a359 359 0 0 1-1.5 10q.03 1.839 1 3v1q-1.724.436-2 2.5a24625 24625 0 0 0-19 116q.042 1.605 1 2.5.658-.098 1 .5a61 61 0 0 1-2 5.5q-.29-5.923-1.5 0a56962 56962 0 0 0-26.5 163q.03 1.839 1 3 .356 1.937-1 3-.332-3.895-1.5 0l-1-3a2.43 2.43 0 0 0-.5 2 36 36 0 0 1-2-4.5q.957-2.56 0-5.5.97-1.161 1-3-.21-2.295-2-3v-1q.97-1.161 1-3a6702 6702 0 0 1-20.5-127q-.913-2.35-2.5-4 .242-1.638-1-4 1.694-3.192.5-7-.075-3.366-2.5-5-1.509-1.344 0-2 1.714-3.852-.5-8a2.43 2.43 0 0 0-.5 2 61 61 0 0 1-2-5.5q.834-.574 1-1.5.936-.626 1-2a103 103 0 0 1-1.5-10q-.625-1.884-2.5-2v-1q1.516-7.79-.5-16-9.744-55.95-19-112l-1-2q-.598.343-.5 1a57 57 0 0 1-1-4q.894-12.407-2.5-25-.574-.834-1.5-1-.442-1.907-1-5 .97-1.161 1-3l-2.5-15q-.574-.834-1.5-1-.372-2.33-2-5.5.343-.598 1-.5.958-.895 1-2.5-.163-5.058-3-8.5-2-.5 0-1 .958-.895 1-2.5a778 778 0 0 0-6.5-41.5q-.354-2.43-2.5-3-1.509-1.343 0-2 .958-.895 1-2.5a223 223 0 0 1-3-17.5q-.21-2.295-2-3-2-.5 0-1 .958-.895 1-2.5a1714 1714 0 0 0-3-20.5m439 0h142v142a6223608 6223608 0 0 1-492 353q-2 0-2-2a6186003 6186003 0 0 1 352-493" />
  <path style="opacity:.377" fill="#ececec" d="M581.5-.5h1q-.953 12.75-4 26-.97-1.161-1-3a439 439 0 0 1 4-23" />
  <path style="opacity:.486" fill="#ebebeb" d="M416.5-.5h2a1714 1714 0 0 1 3 20.5q-.042 1.605-1 2.5-2.865-11.772-4-23" />
  <path style="opacity:.314" fill="#eee" d="M420.5 23.5q1.79.705 2 3a223 223 0 0 0 3 17.5q-.042 1.605-1 2.5-3.471-11.092-4-23" />
  <path style="opacity:.467" fill="#ededed" d="M578.5 26.5a1781 1781 0 0 1-5 31q-.979-1.423-1-3.5a317 317 0 0 0 2.5-17.5q.649-5.736 3.5-10" />
  <path style="opacity:.274" fill="#ededed" d="M424.5 48.5q2.146.57 2.5 3a778 778 0 0 1 6.5 41.5q-.042 1.605-1 2.5-4.22-23.4-8-47" />
  <path style="opacity:.353" fill="#ededed" d="M572.5 60.5q-.447 10.326-3 21-1.356-1.064-1-3a308 308 0 0 0 2.5-16q.238-2.765 1.5-2" />
  <path style="opacity:.403" fill="#ededed" d="M568.5 78.5q-.356 1.936 1 3-1.11 8.235-3 18-1.481-10.65 2-21" />
  <path style="opacity:.263" fill="#ececec" d="M432.5 96.5q2.837 3.442 3 8.5-.042 1.605-1 2.5a80 80 0 0 1-2-11" />
  <path style="opacity:.493" fill="#ededed" d="M566.5 100.5a601 601 0 0 1-6 36q-.97-1.161-1-3a967 967 0 0 1 5-30.5q.276-2.064 2-2.5" />
  <path style="opacity:.387" fill="#ededed" d="M435.5 113.5q.926.166 1.5 1l2.5 15q-.03 1.839-1 3-.849-9.359-3-19" />
  <path style="opacity:.276" fill="#ececec" d="M439.5 137.5q.926.166 1.5 1 3.394 12.593 2.5 25-2.523-13.344-4-26" />
  <path style="opacity:.468" fill="#ededed" d="M557.5 151.5q-.474 10.32-3 21-.958-.895-1-2.5 1.074-10.512 4-18.5" />
  <path style="opacity:.321" fill="#ededed" d="M465.5 296.5a1758 1758 0 0 0-7-40q1.27-2.341-1-4.5a126 126 0 0 1 0-9q-2.469-2.332-1-5a879 879 0 0 1-5-22.5q1.27-2.341-1-4.5a3.94 3.94 0 0 0 1-2q-4.462-20.958-7-41.5-.098-.657.5-1l1 2q9.256 56.05 19 112 2.016 8.21.5 16" />
  <path style="opacity:.306" fill="#eee" d="M554.5 173.5q-1.388 12.817-4 24-.97-1.161-1-3a359 359 0 0 0 1.5-10q.494-6.26 3.5-11" />
  <path style="opacity:.427" fill="#ededed" d="M550.5 198.5a829 829 0 0 1-8 46q1.664 2.994-1 5.5l1 1-3 11q.686.621 1 1.5-2.423 6.062-2 12-2.085 2.504-1 5a37.6 37.6 0 0 1-3 10.5q.826 2.098 1 4a54.8 54.8 0 0 0-3 11.5 3.65 3.65 0 0 0 1 1.5 72 72 0 0 0-3 11.5q-.958-.895-1-2.5a24625 24625 0 0 1 19-116q.276-2.064 2-2.5" />
  <path style="opacity:.366" fill="#ededed" d="M465.5 297.5q1.875.116 2.5 2 .505 5.041 1.5 10-.064 1.374-1 2-2.074-7.244-3-14" />
  <path style="opacity:.361" fill="#e9e9e9" d="M470.5 324.5q-1.262-2.819-1-6a2.43 2.43 0 0 1 .5-2q2.214 4.148.5 8" />
  <path style="opacity:.464" fill="#ececec" d="M470.5 326.5q2.425 1.634 2.5 5 1.194 3.808-.5 7-1.58-6.216-2-12" />
  <path style="opacity:.361" fill="#ededed" d="M529.5 325.5q-3.406 26.445-9 54 .423 5.938-2 12 1.037 2.752-1 5.5l1 1-3 11q.686.621 1 1.5a99 99 0 0 1-3 10.5q1.469 2.668-1 5 .686.621 1 1.5a51 51 0 0 1-3 10.5q.826 2.098 1 4a344 344 0 0 0-3 11.5 3.65 3.65 0 0 0 1 1.5 99 99 0 0 0-3 10.5q1.27 2.341-1 4.5.686.621 1 1.5-3.311 10.062-4 20-.97-1.161-1-3a56962 56962 0 0 1 26.5-163q1.21-5.923 1.5 0" />
  <path style="opacity:.439" fill="#ebebeb" d="M993.5 418.5a129 129 0 0 1-14 3q-1.839-.03-3-1a52.7 52.7 0 0 0 12.5-3q2.143-.045 4.5 1" />
  <path style="opacity:1" fill="#f3f3f3" d="M-.5 416.5q3.46.729 6.5 0 1.492.85 2.5 2 5.604 2.234 12 2a386 386 0 0 0 43.5 8q1.605-.042 2.5-1 .5-2 1 0 5.265 2.526 11.5 3 1.605-.042 2.5-1l2 1a1143 1143 0 0 0 80.5 14q2.077-.022 3.5-1l6 1q.572 2.146 3 2.5a389 389 0 0 1 18 2.5q1.839-.03 3-1a5.73 5.73 0 0 1 3 1q2.665 1.65 6 2.5a318 318 0 0 0 22 2.5 904 904 0 0 0 64 11q1.839-.03 3-1 1.488-.258 2 1-.658-.098-1 .5 5.593 2.55 11 .5h1q.705 1.79 3 2 3.96.892 8 1 4.475 1.331 9.5 2 1.605-.042 2.5-1 .5-2 1 0 .166.926 1 1.5 42.79 8.115 86 13.5a455 455 0 0 0 32 6q1.839-.03 3-1h1q.705 1.79 3 2 3.96.892 8 1h1a1150 1150 0 0 1 25 5l-4 2q-1.92 2.147-5 2-1.161-.97-3-1-2.295.21-3 2-3.168 1.162-6 0-8 .65-16 1.5-3.674 1.064-5 2.5-1.272 1.688-3 0a1660 1660 0 0 0-91 15 2463 2463 0 0 0-69 10.5q-4.036.234-7 2.5l-2 1q-6.115-1.773-12 1-6.396-.234-12 2a4977 4977 0 0 0-98 15.5l-2 1q.343.598 1 .5a57 57 0 0 1-4 1q-1.423-.979-3.5-1-39.257 6.125-78.5 12.5a128 128 0 0 0-8 2.5 531 531 0 0 0-37 5.5q-.835.575-1 1.5-.5 2-1 0-1.161-.97-3-1a121 121 0 0 1-20 3z" />
  <path style="opacity:.47" fill="#ececec" d="M20.5 420.5q-6.396.234-12-2 6.222-.757 12 2" />
  <path style="opacity:1" fill="#f3f3f3" d="M999.5 416.5v165a434 434 0 0 1-17-3.5q-5.786-1.215-11 .5-1.937.356-3-1a2.43 2.43 0 0 0 2-.5 2370 2370 0 0 0-61.5-10.5q-2.077.021-3.5 1a57 57 0 0 1-4-1q-7.75-2.963-18-4.5a1521 1521 0 0 1-54-8.5q-1.839.03-3 1-2.872.426-5-1 .814-.09 1-1a7762 7762 0 0 0-54.5-9q-1.605.042-2.5 1-2.398.401-4-1a4.93 4.93 0 0 0 3-.5 2413 2413 0 0 0-81.5-13.5q-1.605.042-2.5 1-3.084.992-6-1-7.214-3.332-19-4.5-4.3-1.201-8 .5a38.8 38.8 0 0 1-8.5-2q-1.97 1.18-3.5-1a2011 2011 0 0 0-46-8.5q-4.3-1.201-8 .5-1.487.257-2-1-5.885-2.773-12-1-1.702-.904-3-1-.626-1.083-2-1.5l-15-2.5q-1.839.03-3 1-5.367-.073-10-2a4.93 4.93 0 0 0 3-.5 469 469 0 0 1-16-3q-4.794-1.207-9 .5-1.937.356-3-1a2.43 2.43 0 0 0 2-.5 43.4 43.4 0 0 1-8-2q3.804-.279 7-1.5 16.46-2.243 33-4.5 3.675-1.064 5-2.5 1.272-1.687 3 0 29.63-2.532 58-10 1.063-1.356 3-1 1.161.97 3 1a268 268 0 0 0 27-5 228 228 0 0 0 21-2.5q3.229-.149 5-2.5.5-2 1 0 .895.958 2.5 1a164 164 0 0 1 9.5-1.5q1.857-1.035 0-1.5a36 36 0 0 1 4.5-2q.598.343.5 1 .895.958 2.5 1a357 357 0 0 1 35.5-5.5 561 561 0 0 0 20-4.5q21.93-2.194 43-7h1q14.375-.78 26-5 1.272-1.687 3 0a54.7 54.7 0 0 0 15-2.5q-.342-.598-1-.5a57 57 0 0 1 4-1q4.71 1.712 10 .5a3874 3874 0 0 1 30.5-5.5q1.545-.504 1.5-2h1q1.161.97 3 1a1376 1376 0 0 1 23-3.5q.834-.574 1-1.5.656-1.509 2 0a306 306 0 0 0 19-2q2.295-.21 3-2 1.063-1.356 3-1 1.161.97 3 1a227 227 0 0 0 21-4 18.5 18.5 0 0 0 6-.5q.834-.574 1-1.5 2.154.321 5-1 1.423.978 3.5 1 2.522-.162 3.5-2h1q1.161.97 3 1a129 129 0 0 0 14-3q2.571-1.857 6-2" />
  <path style="opacity:.261" fill="#ebebeb" d="M975.5 420.5q-.978 1.838-3.5 2-2.077-.022-3.5-1a52 52 0 0 1 7-1" />
  <path style="opacity:.444" fill="#eee" d="M963.5 422.5q-.166.926-1 1.5a18.5 18.5 0 0 1-6 .5h-2q4.358-2.475 9-2" />
  <path style="opacity:.504" fill="#ebebeb" d="M954.5 424.5h2a227 227 0 0 1-21 4q-1.839-.03-3-1 7.292-.68 15-3 2.341 1.27 4.5-1 1.006 1.129 2.5 1" />
  <path style="opacity:.849" fill="#ececec" d="M66.5 427.5q-.895.958-2.5 1a386 386 0 0 1-43.5-8q22.965 2.157 46 7" />
  <path style="opacity:.353" fill="#eaeaea" d="M67.5 427.5a339 339 0 0 1 14 2q-.895.958-2.5 1-6.235-.474-11.5-3" />
  <path style="opacity:.322" fill="#ebebeb" d="M929.5 428.5q-.705 1.79-3 2a306 306 0 0 1-19 2 224 224 0 0 1 10.5-3q2.65 1.502 5-1 2.934.426 6.5 0" />
  <path style="opacity:.503" fill="#ebebeb" d="M905.5 432.5q-.166.926-1 1.5a1376 1376 0 0 0-23 3.5q-1.839-.03-3-1a45.6 45.6 0 0 0 12.5-3q2.097.826 4 1 4.928-2.456 10.5-2" />
  <path style="opacity:.393" fill="#ededed" d="M877.5 436.5q.045 1.496-1.5 2a3874 3874 0 0 0-30.5 5.5q-5.29 1.212-10-.5a980 980 0 0 1 42-7" />
  <path style="opacity:.725" fill="#ededed" d="M167.5 443.5q-1.423.978-3.5 1a1143 1143 0 0 1-80.5-14q.09-.814 1-1 13.592 2.274 27.5 6 2.097-.826 4-1a616 616 0 0 1 23.5 5q2.341-1.27 4.5 1 3.699-.914 7.5 1 2.341-1.27 4.5 1a3.65 3.65 0 0 1 1.5-1 44.4 44.4 0 0 0 10 2" />
  <path style="opacity:.363" fill="#ececec" d="M473.5 342.5q1.587 1.65 2.5 4a6702 6702 0 0 0 20.5 127q-.03 1.839-1 3a52.7 52.7 0 0 0-3-12.5q.174-1.902 1-4a37.6 37.6 0 0 1-3-10.5q1.085-2.496-1-5a3.65 3.65 0 0 1 1-1.5 99 99 0 0 1-3-10.5q.423-5.938-2-12 1.085-2.496-1-5l1-2a355 355 0 0 0-5-22.5l1-1q-4.906-23.172-8-47.5" />
  <path style="opacity:.485" fill="#ededed" d="M173.5 444.5q11.657.13 24 4-1.161.97-3 1a389 389 0 0 0-18-2.5q-2.428-.354-3-2.5" />
  <path style="opacity:.464" fill="#eaeaea" d="M831.5 444.5q.658-.098 1 .5a54.7 54.7 0 0 1-15 2.5 19.6 19.6 0 0 1 3.5-2l1 1q4.496-2.05 9.5-2" />
  <path style="opacity:.315" fill="#e9e9e9" d="M814.5 447.5q-11.625 4.22-26 5a350 350 0 0 1 12.5-4q1.903.174 4 1 4.496-2.05 9.5-2" />
  <path style="opacity:.362" fill="#ededed" d="M228.5 454.5a318 318 0 0 1-22-2.5q-3.335-.85-6-2.5 5.895-.433 12 2a3.65 3.65 0 0 0 1.5-1l11 3q1.97-1.18 3.5 1" />
  <path style="opacity:.375" fill="#ededed" d="M295.5 464.5q-1.161.97-3 1a904 904 0 0 1-64-11q6.869-.885 13.5 2 1.903-.174 4-1l13 4q2.098-.826 4-1l11 3q2.668-1.469 5 1l1-1a92.3 92.3 0 0 1 15.5 3" />
  <path style="opacity:.659" fill="#ebebeb" d="M787.5 452.5q-21.07 4.806-43 7 1.008-1.15 2.5-2h9q2.332-2.469 5-1a20797 20797 0 0 0 23-5 12 12 0 0 1 3.5 1" />
  <path style="opacity:.537" fill="#ececec" d="M744.5 459.5a561 561 0 0 1-20 4.5 357 357 0 0 0-35.5 5.5q-1.605-.042-2.5-1a625 625 0 0 0 26-5q3 1.855 5.5-1l1 1q5.688-1.59 11.5-3a3.65 3.65 0 0 1 1.5 1q6.19-2.697 12.5-2" />
  <path style="opacity:.858" fill="#ededed" d="M297.5 465.5q5.232.98 10 1-5.407 2.05-11-.5.342-.598 1-.5" />
  <path style="opacity:.324" fill="#ebebeb" d="M308.5 466.5q5.945.542 11 3a41.3 41.3 0 0 1-8-1q-2.295-.21-3-2" />
  <path style="opacity:.179" fill="#e9e9e9" d="M331.5 470.5q-.895.958-2.5 1-5.025-.669-9.5-2a10 10 0 0 1 3-1 33.4 33.4 0 0 0 9 2" />
  <path style="opacity:.496" fill="#ececec" d="M681.5 469.5q1.857.465 0 1.5-4.773.61-9.5 1.5-1.605-.042-2.5-1a9.2 9.2 0 0 0 4.5-2q3.531.588 7.5 0" />
  <path style="opacity:.434" fill="#ededed" d="M668.5 471.5q-1.771 2.351-5 2.5a228 228 0 0 1-21 2.5q-1.487.258-2-1a1065 1065 0 0 1 28-4" />
  <path style="opacity:.351" fill="#ececec" d="M495.5 477.5q1.79.705 2 3-.03 1.839-1 3a19.2 19.2 0 0 1-1-6" />
  <path style="opacity:.443" fill="#ebebeb" d="M640.5 475.5q.513 1.258 2 1a268 268 0 0 1-27 5q-1.839-.03-3-1a953 953 0 0 1 28-5" />
  <path style="opacity:.37" fill="#ededed" d="M332.5 470.5q7.292.68 15 3 5.938-.423 12 2 2.341-1.27 4.5 1 4.597-.16 9 0a349 349 0 0 1 16 4q1.902-.174 4-1a1011 1011 0 0 0 26.5 6 1372 1372 0 0 1-86-13.5q-.834-.574-1-1.5" />
  <path style="opacity:.399" fill="#ececec" d="M609.5 481.5q-28.37 7.468-58 10 1.876-2.58 4.5-1l11-3 1 1a99 99 0 0 0 11-3q2.442.895 5-1 .621.686 1.5 1a99 99 0 0 0 10.5-3q1.903.174 4 1 4.426-2.364 9.5-2" />
  <path style="opacity:.265" fill="#ececec" d="M454.5 490.5q-1.161.97-3 1a455 455 0 0 1-32-6q3.558-2.12 6.5 1l1-1a5116 5116 0 0 1 27.5 5" />
  <path style="opacity:.337" fill="#ebebeb" d="M455.5 490.5q5.945.542 11 3a41.3 41.3 0 0 1-8-1q-2.295-.21-3-2" />
  <path style="opacity:.893" fill="#eee" d="M548.5 491.5q-1.325 1.436-5 2.5-16.54 2.257-33 4.5 7.143-2.545 15-4a3.65 3.65 0 0 1 1.5 1 99 99 0 0 1 10.5-3q2.496 1.085 5-1 2.739.63 6 0" />
  <path style="opacity:.312" fill="#ebebeb" d="m495.5 497.5 2-1q-1.578 2.634-5 2a1150 1150 0 0 0-25-5 12 12 0 0 1 3.5-1 329 329 0 0 1 24.5 5" />
  <path style="opacity:.386" fill="#ebebeb" d="M501.5 494.5q.09.814 1 1 1.182-1.905 3-3 0 2 2 2-.679 1.438-2 2.5 2.62.528 5 1.5-3.196 1.221-7 1.5a43.4 43.4 0 0 0 8 2 2.43 2.43 0 0 1-2 .5 9.1 9.1 0 0 1-5-1l-1 1q1.905 1.182 3 3-2 0-2 2a10.2 10.2 0 0 1-3-3q-.5-2-1 0-.332 3.895-1.5 0a108 108 0 0 1-2 9q-.574.834-1.5 1a141 141 0 0 1 1.5-11 14.7 14.7 0 0 1-3.5 3q0-2-2-2 1.61-2.077 4-3.5-3.544.997-7-.5l4-2q3.422.634 5-2v-1q1.258-.512 1-2a2.43 2.43 0 0 1 .5-2l1 3q1.168-3.895 1.5 0" />
  <path style="opacity:.441" fill="#e8e8e8" d="M483.5 502.5a19.2 19.2 0 0 0-6 1q.705-1.79 3-2 1.839.03 3 1" />
  <path style="opacity:.345" fill="#ebebeb" d="M512.5 503.5q4.206-1.707 9-.5a469 469 0 0 0 16 3 4.93 4.93 0 0 1-3 .5q-2.979 1.892-5.5-1l-1 1q-7.898-2.431-15.5-3" />
  <path style="opacity:.426" fill="#ededed" d="M471.5 503.5q-4.72 1.86-10 3-2.496-1.085-5 1-2.739-.63-6 0 1.326-1.436 5-2.5a646 646 0 0 1 16-1.5" />
  <path style="opacity:1" fill="#f3f3f3" d="M491.5 504.5q2 0 2 2a208977 208977 0 0 1-352 493H-.5v-142a6223608 6223608 0 0 1 492-353m15 1 493 352v142h-142a6223608 6223608 0 0 1-353-492q0-2 2-2m-6-1h1q.387 3.465 0 6-.958.895-1 2.5l11.5 68.5q.575.834 1.5 1 2 1 0 2-1.138-.764-1 2a14517 14517 0 0 1 30.5 185q1.022 4.651 2.5 7 1.257.513 1 2-1.707 4.206-.5 9a201 201 0 0 0 3 14q.598-.342.5-1 1.257.513 1 2-1.712 4.71-.5 10a3112 3112 0 0 1 13 78q.186 4.127 2.5 5a61 61 0 0 1 2 5.5q-.342.598-1 .5-.958.895-1 2.5a2207 2207 0 0 0 9.5 59.5q.625 1.884 2.5 2v1q-.97 1.161-1 3-.24 2.782 2 4 2 .5 0 1-.936.626-1 2a159 159 0 0 1 3 21h-162a1158 1158 0 0 1 8-53q-.064-1.374-1-2-2-.5 0-1 1.935-.837 2.5-3a453 453 0 0 1 4.5-31.5q-.022-2.077-1-3.5a57 57 0 0 1 1-4q2.351-1.771 2.5-5a3959 3959 0 0 1 18-110q1.212-5.29-.5-10-.258-1.487 1-2 2.366-.514 2-4.5-.022-2.077-1-3.5-1.509-1.344 0-2 1.79-.705 2-3 1.584-4.754 0-9-.356-1.937 1-3a874 874 0 0 0 10-55q-.03-1.839-1-3v-1q2.351-1.771 2.5-5 13.696-83.844 27.5-167.5.029-2.688-1-1.5-2-1 0-2 .926-.166 1.5-1a108 108 0 0 0 2-9q1.168 3.895 1.5 0" />
  <path style="opacity:.638" fill="#ebebeb" d="M544.5 508.5q1.161-.97 3-1l15 2.5q1.374.417 2 1.5a261 261 0 0 1-20-3" />
  <path style="opacity:.545" fill="#ececec" d="M567.5 512.5q6.115-1.773 12 1-3.284 1.362-6.5-1-2.56.957-5.5 0" />
  <path style="opacity:.569" fill="#ededed" d="M581.5 514.5q3.7-1.701 8-.5a2011 2011 0 0 1 46 8.5q-4.91.546-9.5 0-2.558-1.895-5-1a415 415 0 0 1-39.5-7" />
  <path style="opacity:.459" fill="#ececec" d="M447.5 507.5q-1.876 2.58-4.5 1-5.235 1.401-10.5 3a3.65 3.65 0 0 1-1.5-1l-11 3-1-1q-2.332 2.469-5 1l-11 3q-1.902-.174-4-1a528 528 0 0 1-42.5 8v-1a1660 1660 0 0 1 91-15" />
  <path style="opacity:.377" fill="#ececec" d="M356.5 522.5v1a713 713 0 0 0-43.5 8 3.65 3.65 0 0 0-1.5-1 125 125 0 0 0-15.5 4q-2.098-.826-4-1-3.836 2.721-8 1l-3 2q-.598-.342-.5-1 2.964-2.266 7-2.5 34.465-5.745 69-10.5" />
  <path style="opacity:.586" fill="#ebebeb" d="M647.5 525.5q3.7-1.701 8-.5 11.786 1.168 19 4.5a257 257 0 0 1-27-4" />
  <path style="opacity:.515" fill="#ededed" d="M680.5 530.5q.895-.958 2.5-1a2413 2413 0 0 1 81.5 13.5 4.93 4.93 0 0 1-3 .5 379 379 0 0 1-36.5-6q-2.668 1.469-5-1a223 223 0 0 0-8.5 0q-2.504-2.085-5-1a1059 1059 0 0 1-26-5" />
  <path style="opacity:.331" fill="#ebebeb" d="M278.5 536.5a44.4 44.4 0 0 0-10 2 44 44 0 0 0-2-1q5.885-2.773 12-1" />
  <path style="opacity:.288" fill="#ebebeb" d="M266.5 537.5q-5.778 2.757-12 2 5.604-2.234 12-2" />
  <path style="opacity:.525" fill="#ededed" d="M765.5 544.5q.895-.958 2.5-1a7762 7762 0 0 1 54.5 9q-.186.91-1 1a1024 1024 0 0 1-56-9" />
  <path style="opacity:.407" fill="#ececec" d="M501.5 510.5q2.346 12.187 5 24.5-1.07 2.014 1 4 .37 5.925 0 12a125 125 0 0 1 4 15.5 3.65 3.65 0 0 1-1 1.5q2.425 7.394 3 14.5-.925-.166-1.5-1L500.5 513q.042-1.605 1-2.5" />
  <path style="opacity:.396" fill="#ececec" d="M254.5 539.5q-1.008 1.15-2.5 2h-9q-2.332 2.469-5 1-5.235 1.401-10.5 3a3.65 3.65 0 0 1-1.5-1l-11 3q-2.014-1.07-4 1a3.65 3.65 0 0 0-1.5-1q-5.811 1.41-11.5 3-1.903-.174-4-1a99 99 0 0 1-10.5 3q-2.752-1.037-5.5 1l-1-1a99 99 0 0 1-10.5 3 3.65 3.65 0 0 1-1.5-1 34.5 34.5 0 0 1-9.5 2q-.657.098-1-.5l2-1a4977 4977 0 0 1 98-15.5" />
  <path style="opacity:.417" fill="#ededed" d="M826.5 554.5q1.161-.97 3-1a1521 1521 0 0 0 54 8.5q10.25 1.537 18 4.5a3961 3961 0 0 1-75-12" />
  <path style="opacity:.395" fill="#ececec" d="M151.5 557.5a3043 3043 0 0 0-70.5 12q-2.65-1.502-5 1l-1-1q-6.779 2.519-13.5 2a128 128 0 0 1 8-2.5q39.243-6.375 78.5-12.5 2.077.021 3.5 1" />
  <path style="opacity:.133" fill="#ededed" d="M905.5 567.5q1.423-.979 3.5-1 30.817 4.845 61.5 10.5a2.43 2.43 0 0 1-2 .5 5255 5255 0 0 1-63-10" />
  <path style="opacity:.362" fill="#ececec" d="M61.5 571.5q-4.72 1.86-10 3-2.341-1.27-4.5 1-3.699-.914-7.5 1-2.341-1.27-4.5 1a3.65 3.65 0 0 0-1.5-1 44.4 44.4 0 0 1-10 2q.165-.925 1-1.5a531 531 0 0 1 37-5.5" />
  <path style="opacity:.396" fill="#ececec" d="M22.5 578.5q-11.772 2.865-23 4v-2q10.12-.66 20-3 1.839.03 3 1" />
  <path style="opacity:.4" fill="#ececec" d="M971.5 578.5q5.214-1.715 11-.5a434 434 0 0 0 17 3.5v1q-13.31-1.62-28-4" />
  <path style="opacity:.454" fill="#ededed" d="M466.5 690.5a16648 16648 0 0 1 26-157q-1.27-2.341 1-4.5a3.65 3.65 0 0 1-1-1.5 171 171 0 0 0 3-11q1.029-1.188 1 1.5-13.804 83.656-27.5 167.5-.149 3.229-2.5 5" />
  <path style="opacity:.459" fill="#ececec" d="M466.5 691.5q.97 1.161 1 3a874 874 0 0 1-10 55q-.166-.925-1-1.5a99 99 0 0 0 3-11l-1-1 3-11q-1.469-2.668 1-5a3.65 3.65 0 0 1-1-1.5q2.361-5.37 3-10.5a3.65 3.65 0 0 1-1-1.5 138 138 0 0 0 3-15" />
  <path style="opacity:.441" fill="#eaeaea" d="M456.5 752.5q1.584 4.246 0 9-.21 2.295-2 3z" />
  <path style="opacity:.404" fill="#ededed" d="M513.5 584.5q6.432 34.935 13 69.5-1.02 6.862 2 14.5-1.664 2.994 1 5.5l-1 1 3 11a3.65 3.65 0 0 0-1 1.5q2.423 6.062 2 12 2.085 2.504 1 5a879 879 0 0 0 5 22.5 3.65 3.65 0 0 0-1 1.5 862 862 0 0 0 5 25q-1.556 3.103 1 6a3.65 3.65 0 0 1-1 1.5q3.21 8.758 3 17.5-1.478-2.349-2.5-7a14517 14517 0 0 0-30.5-185q-.138-2.764 1-2" />
  <path style="opacity:.302" fill="#ededed" d="M454.5 766.5q.978 1.423 1 3.5.366 3.986-2 4.5-.166-.925-1-1.5 2.057-3.469 2-6.5" />
  <path style="opacity:.383" fill="#ededed" d="M546.5 780.5q.553 9.54 4 20-.544 1.025-1 2 .098.658-.5 1a201 201 0 0 1-3-14q-1.207-4.794.5-9" />
  <path style="opacity:.345" fill="#ededed" d="M452.5 776.5q1.712 4.71.5 10a3959 3959 0 0 0-18 110q-.149 3.229-2.5 5a7619 7619 0 0 1 20-125" />
  <path style="opacity:.535" fill="#eee" d="M550.5 804.5a4483 4483 0 0 1 15 93q-2.314-.873-2.5-5a3112 3112 0 0 0-13-78q-1.212-5.29.5-10" />
  <path style="opacity:.397" fill="#ededed" d="M566.5 903.5q2.388 13.976 6 28.5-.826 2.097-1 4 4.032 16.329 6 31.5-1.875-.116-2.5-2a2207 2207 0 0 1-9.5-59.5q.042-1.605 1-2.5" />
  <path style="opacity:.213" fill="#ededed" d="M431.5 905.5q.978 1.423 1 3.5a453 453 0 0 0-4.5 31.5q-.565 2.163-2.5 3a878 878 0 0 1 6-38" />
  <path style="opacity:.368" fill="#ededed" d="M425.5 944.5q.936.626 1 2a1158 1158 0 0 0-8 53h-2a794 794 0 0 1 9-55" />
  <path style="opacity:.39" fill="#ededed" d="M577.5 968.5a21.4 21.4 0 0 1 1 7q-2.24-1.218-2-4 .03-1.839 1-3" />
  <path style="opacity:.416" fill="#ececec" d="M578.5 976.5q3.607 11.523 4 23h-2a159 159 0 0 0-3-21q.064-1.374 1-2" />
</svg>